<?xml version="1.0" standalone="no"?><!DOCTYPE svg PUBLIC "-//W3C//DTD SVG 1.1//EN" "http://www.w3.org/Graphics/SVG/1.1/DTD/svg11.dtd"><svg width="1000" height="4500" version="1.1" xmlns="http://www.w3.org/2000/svg" xmlns:xlink="http://www.w3.org/1999/xlink"><defs xmlns="http://www.w3.org/1999/xhtml"><style type="text/css"><![CDATA[
.node circle { fill: rgb(255, 255, 255); stroke: steelblue; stroke-width: 3px; }
.node text { font: normal normal normal normal 12px sans-serif; }
.node--internal text { text-shadow: rgb(255, 255, 255) 0px 1px 0px, rgb(255, 255, 255) 0px -1px 0px, rgb(255, 255, 255) 1px 0px 0px, rgb(255, 255, 255) -1px 0px 0px; }
.link { fill: none; stroke: rgb(204, 204, 204); stroke-width: 2px; }]]></style></defs><g transform="translate(90,20)"><path class="link" d="M117.14285714285714,1047.037067819149C58.57142857142857,1047.037067819149 58.57142857142857,2180.433427526596 0,2180.433427526596"/><path class="link" d="M117.14285714285714,3313.8297872340427C58.57142857142857,3313.8297872340427 58.57142857142857,2180.433427526596 0,2180.433427526596"/><path class="link" d="M234.28571428571428,484.4996675531915C175.71428571428572,484.4996675531915 175.71428571428572,1047.037067819149 117.14285714285714,1047.037067819149"/><path class="link" d="M234.28571428571428,1609.5744680851064C175.71428571428572,1609.5744680851064 175.71428571428572,1047.037067819149 117.14285714285714,1047.037067819149"/><path class="link" d="M234.28571428571428,2745.744680851064C175.71428571428572,2745.744680851064 175.71428571428572,3313.8297872340427 117.14285714285714,3313.8297872340427"/><path class="link" d="M234.28571428571428,3881.9148936170213C175.71428571428572,3881.9148936170213 175.71428571428572,3313.8297872340427 117.14285714285714,3313.8297872340427"/><path class="link" d="M351.42857142857144,211.5525265957447C292.8571428571429,211.5525265957447 292.8571428571429,484.4996675531915 234.28571428571428,484.4996675531915"/><path class="link" d="M351.42857142857144,757.4468085106383C292.8571428571429,757.4468085106383 292.8571428571429,484.4996675531915 234.28571428571428,484.4996675531915"/><path class="link" d="M351.42857142857144,1325.531914893617C292.8571428571429,1325.531914893617 292.8571428571429,1609.5744680851064 234.28571428571428,1609.5744680851064"/><path class="link" d="M351.42857142857144,1893.6170212765958C292.8571428571429,1893.6170212765958 292.8571428571429,1609.5744680851064 234.28571428571428,1609.5744680851064"/><path class="link" d="M351.42857142857144,2461.7021276595747C292.8571428571429,2461.7021276595747 292.8571428571429,2745.744680851064 234.28571428571428,2745.744680851064"/><path class="link" d="M351.42857142857144,3029.7872340425533C292.8571428571429,3029.7872340425533 292.8571428571429,2745.744680851064 234.28571428571428,2745.744680851064"/><path class="link" d="M351.42857142857144,3597.872340425532C292.8571428571429,3597.872340425532 292.8571428571429,3881.9148936170213 234.28571428571428,3881.9148936170213"/><path class="link" d="M351.42857142857144,4165.957446808511C292.8571428571429,4165.957446808511 292.8571428571429,3881.9148936170213 234.28571428571428,3881.9148936170213"/><path class="link" d="M468.57142857142856,88.76329787234043C410,88.76329787234043 410,211.5525265957447 351.42857142857144,211.5525265957447"/><path class="link" d="M468.57142857142856,334.34175531914894C410,334.34175531914894 410,211.5525265957447 351.42857142857144,211.5525265957447"/><path class="link" d="M468.57142857142856,615.4255319148937C410,615.4255319148937 410,757.4468085106383 351.42857142857144,757.4468085106383"/><path class="link" d="M468.57142857142856,899.468085106383C410,899.468085106383 410,757.4468085106383 351.42857142857144,757.4468085106383"/><path class="link" d="M468.57142857142856,1183.5106382978724C410,1183.5106382978724 410,1325.531914893617 351.42857142857144,1325.531914893617"/><path class="link" d="M468.57142857142856,1467.5531914893618C410,1467.5531914893618 410,1325.531914893617 351.42857142857144,1325.531914893617"/><path class="link" d="M468.57142857142856,1751.595744680851C410,1751.595744680851 410,1893.6170212765958 351.42857142857144,1893.6170212765958"/><path class="link" d="M468.57142857142856,2035.6382978723404C410,2035.6382978723404 410,1893.6170212765958 351.42857142857144,1893.6170212765958"/><path class="link" d="M468.57142857142856,2319.68085106383C410,2319.68085106383 410,2461.7021276595747 351.42857142857144,2461.7021276595747"/><path class="link" d="M468.57142857142856,2603.723404255319C410,2603.723404255319 410,2461.7021276595747 351.42857142857144,2461.7021276595747"/><path class="link" d="M468.57142857142856,2887.7659574468084C410,2887.7659574468084 410,3029.7872340425533 351.42857142857144,3029.7872340425533"/><path class="link" d="M468.57142857142856,3171.8085106382982C410,3171.8085106382982 410,3029.7872340425533 351.42857142857144,3029.7872340425533"/><path class="link" d="M468.57142857142856,3455.8510638297876C410,3455.8510638297876 410,3597.872340425532 351.42857142857144,3597.872340425532"/><path class="link" d="M468.57142857142856,3739.893617021277C410,3739.893617021277 410,3597.872340425532 351.42857142857144,3597.872340425532"/><path class="link" d="M468.57142857142856,4023.9361702127662C410,4023.9361702127662 410,4165.957446808511 351.42857142857144,4165.957446808511"/><path class="link" d="M468.57142857142856,4307.978723404255C410,4307.978723404255 410,4165.957446808511 351.42857142857144,4165.957446808511"/><path class="link" d="M585.7142857142857,35.505319148936174C527.1428571428571,35.505319148936174 527.1428571428571,88.76329787234043 468.57142857142856,88.76329787234043"/><path class="link" d="M585.7142857142857,142.0212765957447C527.1428571428571,142.0212765957447 527.1428571428571,88.76329787234043 468.57142857142856,88.76329787234043"/><path class="link" d="M585.7142857142857,266.2898936170213C527.1428571428571,266.2898936170213 527.1428571428571,334.34175531914894 468.57142857142856,334.34175531914894"/><path class="link" d="M585.7142857142857,402.3936170212766C527.1428571428571,402.3936170212766 527.1428571428571,334.34175531914894 468.57142857142856,334.34175531914894"/><path class="link" d="M585.7142857142857,544.4148936170213C527.1428571428571,544.4148936170213 527.1428571428571,615.4255319148937 468.57142857142856,615.4255319148937"/><path class="link" d="M585.7142857142857,686.436170212766C527.1428571428571,686.436170212766 527.1428571428571,615.4255319148937 468.57142857142856,615.4255319148937"/><path class="link" d="M585.7142857142857,828.4574468085107C527.1428571428571,828.4574468085107 527.1428571428571,899.468085106383 468.57142857142856,899.468085106383"/><path class="link" d="M585.7142857142857,970.4787234042553C527.1428571428571,970.4787234042553 527.1428571428571,899.468085106383 468.57142857142856,899.468085106383"/><path class="link" d="M585.7142857142857,1112.5C527.1428571428571,1112.5 527.1428571428571,1183.5106382978724 468.57142857142856,1183.5106382978724"/><path class="link" d="M585.7142857142857,1254.5212765957447C527.1428571428571,1254.5212765957447 527.1428571428571,1183.5106382978724 468.57142857142856,1183.5106382978724"/><path class="link" d="M585.7142857142857,1396.5425531914893C527.1428571428571,1396.5425531914893 527.1428571428571,1467.5531914893618 468.57142857142856,1467.5531914893618"/><path class="link" d="M585.7142857142857,1538.5638297872342C527.1428571428571,1538.5638297872342 527.1428571428571,1467.5531914893618 468.57142857142856,1467.5531914893618"/><path class="link" d="M585.7142857142857,1680.585106382979C527.1428571428571,1680.585106382979 527.1428571428571,1751.595744680851 468.57142857142856,1751.595744680851"/><path class="link" d="M585.7142857142857,1822.6063829787236C527.1428571428571,1822.6063829787236 527.1428571428571,1751.595744680851 468.57142857142856,1751.595744680851"/><path class="link" d="M585.7142857142857,1964.6276595744682C527.1428571428571,1964.6276595744682 527.1428571428571,2035.6382978723404 468.57142857142856,2035.6382978723404"/><path class="link" d="M585.7142857142857,2106.648936170213C527.1428571428571,2106.648936170213 527.1428571428571,2035.6382978723404 468.57142857142856,2035.6382978723404"/><path class="link" d="M585.7142857142857,2248.6702127659573C527.1428571428571,2248.6702127659573 527.1428571428571,2319.68085106383 468.57142857142856,2319.68085106383"/><path class="link" d="M585.7142857142857,2390.691489361702C527.1428571428571,2390.691489361702 527.1428571428571,2319.68085106383 468.57142857142856,2319.68085106383"/><path class="link" d="M585.7142857142857,2532.712765957447C527.1428571428571,2532.712765957447 527.1428571428571,2603.723404255319 468.57142857142856,2603.723404255319"/><path class="link" d="M585.7142857142857,2674.7340425531916C527.1428571428571,2674.7340425531916 527.1428571428571,2603.723404255319 468.57142857142856,2603.723404255319"/><path class="link" d="M585.7142857142857,2816.7553191489365C527.1428571428571,2816.7553191489365 527.1428571428571,2887.7659574468084 468.57142857142856,2887.7659574468084"/><path class="link" d="M585.7142857142857,2958.776595744681C527.1428571428571,2958.776595744681 527.1428571428571,2887.7659574468084 468.57142857142856,2887.7659574468084"/><path class="link" d="M585.7142857142857,3100.797872340426C527.1428571428571,3100.797872340426 527.1428571428571,3171.8085106382982 468.57142857142856,3171.8085106382982"/><path class="link" d="M585.7142857142857,3242.81914893617C527.1428571428571,3242.81914893617 527.1428571428571,3171.8085106382982 468.57142857142856,3171.8085106382982"/><path class="link" d="M585.7142857142857,3384.840425531915C527.1428571428571,3384.840425531915 527.1428571428571,3455.8510638297876 468.57142857142856,3455.8510638297876"/><path class="link" d="M585.7142857142857,3526.8617021276596C527.1428571428571,3526.8617021276596 527.1428571428571,3455.8510638297876 468.57142857142856,3455.8510638297876"/><path class="link" d="M585.7142857142857,3668.8829787234044C527.1428571428571,3668.8829787234044 527.1428571428571,3739.893617021277 468.57142857142856,3739.893617021277"/><path class="link" d="M585.7142857142857,3810.9042553191493C527.1428571428571,3810.9042553191493 527.1428571428571,3739.893617021277 468.57142857142856,3739.893617021277"/><path class="link" d="M585.7142857142857,3952.925531914894C527.1428571428571,3952.925531914894 527.1428571428571,4023.9361702127662 468.57142857142856,4023.9361702127662"/><path class="link" d="M585.7142857142857,4094.9468085106387C527.1428571428571,4094.9468085106387 527.1428571428571,4023.9361702127662 468.57142857142856,4023.9361702127662"/><path class="link" d="M585.7142857142857,4236.968085106383C527.1428571428571,4236.968085106383 527.1428571428571,4307.978723404255 468.57142857142856,4307.978723404255"/><path class="link" d="M585.7142857142857,4378.989361702128C527.1428571428571,4378.989361702128 527.1428571428571,4307.978723404255 468.57142857142856,4307.978723404255"/><path class="link" d="M702.8571428571429,35.505319148936174C644.2857142857142,35.505319148936174 644.2857142857142,35.505319148936174 585.7142857142857,35.505319148936174"/><path class="link" d="M702.8571428571429,106.51595744680851C644.2857142857142,106.51595744680851 644.2857142857142,142.0212765957447 585.7142857142857,142.0212765957447"/><path class="link" d="M702.8571428571429,177.52659574468086C644.2857142857142,177.52659574468086 644.2857142857142,142.0212765957447 585.7142857142857,142.0212765957447"/><path class="link" d="M702.8571428571429,236.70212765957447C644.2857142857142,236.70212765957447 644.2857142857142,266.2898936170213 585.7142857142857,266.2898936170213"/><path class="link" d="M702.8571428571429,295.8776595744681C644.2857142857142,295.8776595744681 644.2857142857142,266.2898936170213 585.7142857142857,266.2898936170213"/><path class="link" d="M702.8571428571429,366.88829787234044C644.2857142857142,366.88829787234044 644.2857142857142,402.3936170212766 585.7142857142857,402.3936170212766"/><path class="link" d="M702.8571428571429,437.8989361702128C644.2857142857142,437.8989361702128 644.2857142857142,402.3936170212766 585.7142857142857,402.3936170212766"/><path class="link" d="M702.8571428571429,508.9095744680851C644.2857142857142,508.9095744680851 644.2857142857142,544.4148936170213 585.7142857142857,544.4148936170213"/><path class="link" d="M702.8571428571429,579.9202127659574C644.2857142857142,579.9202127659574 644.2857142857142,544.4148936170213 585.7142857142857,544.4148936170213"/><path class="link" d="M702.8571428571429,650.9308510638298C644.2857142857142,650.9308510638298 644.2857142857142,686.436170212766 585.7142857142857,686.436170212766"/><path class="link" d="M702.8571428571429,721.9414893617021C644.2857142857142,721.9414893617021 644.2857142857142,686.436170212766 585.7142857142857,686.436170212766"/><path class="link" d="M702.8571428571429,792.9521276595746C644.2857142857142,792.9521276595746 644.2857142857142,828.4574468085107 585.7142857142857,828.4574468085107"/><path class="link" d="M702.8571428571429,863.9627659574469C644.2857142857142,863.9627659574469 644.2857142857142,828.4574468085107 585.7142857142857,828.4574468085107"/><path class="link" d="M702.8571428571429,934.9734042553192C644.2857142857142,934.9734042553192 644.2857142857142,970.4787234042553 585.7142857142857,970.4787234042553"/><path class="link" d="M702.8571428571429,1005.9840425531916C644.2857142857142,1005.9840425531916 644.2857142857142,970.4787234042553 585.7142857142857,970.4787234042553"/><path class="link" d="M702.8571428571429,1076.9946808510638C644.2857142857142,1076.9946808510638 644.2857142857142,1112.5 585.7142857142857,1112.5"/><path class="link" d="M702.8571428571429,1148.0053191489362C644.2857142857142,1148.0053191489362 644.2857142857142,1112.5 585.7142857142857,1112.5"/><path class="link" d="M702.8571428571429,1219.0159574468087C644.2857142857142,1219.0159574468087 644.2857142857142,1254.5212765957447 585.7142857142857,1254.5212765957447"/><path class="link" d="M702.8571428571429,1290.026595744681C644.2857142857142,1290.026595744681 644.2857142857142,1254.5212765957447 585.7142857142857,1254.5212765957447"/><path class="link" d="M702.8571428571429,1361.0372340425533C644.2857142857142,1361.0372340425533 644.2857142857142,1396.5425531914893 585.7142857142857,1396.5425531914893"/><path class="link" d="M702.8571428571429,1432.0478723404256C644.2857142857142,1432.0478723404256 644.2857142857142,1396.5425531914893 585.7142857142857,1396.5425531914893"/><path class="link" d="M702.8571428571429,1503.058510638298C644.2857142857142,1503.058510638298 644.2857142857142,1538.5638297872342 585.7142857142857,1538.5638297872342"/><path class="link" d="M702.8571428571429,1574.0691489361702C644.2857142857142,1574.0691489361702 644.2857142857142,1538.5638297872342 585.7142857142857,1538.5638297872342"/><path class="link" d="M702.8571428571429,1645.0797872340427C644.2857142857142,1645.0797872340427 644.2857142857142,1680.585106382979 585.7142857142857,1680.585106382979"/><path class="link" d="M702.8571428571429,1716.090425531915C644.2857142857142,1716.090425531915 644.2857142857142,1680.585106382979 585.7142857142857,1680.585106382979"/><path class="link" d="M702.8571428571429,1787.1010638297873C644.2857142857142,1787.1010638297873 644.2857142857142,1822.6063829787236 585.7142857142857,1822.6063829787236"/><path class="link" d="M702.8571428571429,1858.1117021276596C644.2857142857142,1858.1117021276596 644.2857142857142,1822.6063829787236 585.7142857142857,1822.6063829787236"/><path class="link" d="M702.8571428571429,1929.122340425532C644.2857142857142,1929.122340425532 644.2857142857142,1964.6276595744682 585.7142857142857,1964.6276595744682"/><path class="link" d="M702.8571428571429,2000.1329787234044C644.2857142857142,2000.1329787234044 644.2857142857142,1964.6276595744682 585.7142857142857,1964.6276595744682"/><path class="link" d="M702.8571428571429,2071.143617021277C644.2857142857142,2071.143617021277 644.2857142857142,2106.648936170213 585.7142857142857,2106.648936170213"/><path class="link" d="M702.8571428571429,2142.154255319149C644.2857142857142,2142.154255319149 644.2857142857142,2106.648936170213 585.7142857142857,2106.648936170213"/><path class="link" d="M702.8571428571429,2213.1648936170213C644.2857142857142,2213.1648936170213 644.2857142857142,2248.6702127659573 585.7142857142857,2248.6702127659573"/><path class="link" d="M702.8571428571429,2284.175531914894C644.2857142857142,2284.175531914894 644.2857142857142,2248.6702127659573 585.7142857142857,2248.6702127659573"/><path class="link" d="M702.8571428571429,2355.1861702127662C644.2857142857142,2355.1861702127662 644.2857142857142,2390.691489361702 585.7142857142857,2390.691489361702"/><path class="link" d="M702.8571428571429,2426.196808510638C644.2857142857142,2426.196808510638 644.2857142857142,2390.691489361702 585.7142857142857,2390.691489361702"/><path class="link" d="M702.8571428571429,2497.2074468085107C644.2857142857142,2497.2074468085107 644.2857142857142,2532.712765957447 585.7142857142857,2532.712765957447"/><path class="link" d="M702.8571428571429,2568.218085106383C644.2857142857142,2568.218085106383 644.2857142857142,2532.712765957447 585.7142857142857,2532.712765957447"/><path class="link" d="M702.8571428571429,2639.2287234042556C644.2857142857142,2639.2287234042556 644.2857142857142,2674.7340425531916 585.7142857142857,2674.7340425531916"/><path class="link" d="M702.8571428571429,2710.239361702128C644.2857142857142,2710.239361702128 644.2857142857142,2674.7340425531916 585.7142857142857,2674.7340425531916"/><path class="link" d="M702.8571428571429,2781.25C644.2857142857142,2781.25 644.2857142857142,2816.7553191489365 585.7142857142857,2816.7553191489365"/><path class="link" d="M702.8571428571429,2852.2606382978724C644.2857142857142,2852.2606382978724 644.2857142857142,2816.7553191489365 585.7142857142857,2816.7553191489365"/><path class="link" d="M702.8571428571429,2923.271276595745C644.2857142857142,2923.271276595745 644.2857142857142,2958.776595744681 585.7142857142857,2958.776595744681"/><path class="link" d="M702.8571428571429,2994.2819148936173C644.2857142857142,2994.2819148936173 644.2857142857142,2958.776595744681 585.7142857142857,2958.776595744681"/><path class="link" d="M702.8571428571429,3065.2925531914893C644.2857142857142,3065.2925531914893 644.2857142857142,3100.797872340426 585.7142857142857,3100.797872340426"/><path class="link" d="M702.8571428571429,3136.303191489362C644.2857142857142,3136.303191489362 644.2857142857142,3100.797872340426 585.7142857142857,3100.797872340426"/><path class="link" d="M702.8571428571429,3207.313829787234C644.2857142857142,3207.313829787234 644.2857142857142,3242.81914893617 585.7142857142857,3242.81914893617"/><path class="link" d="M702.8571428571429,3278.3244680851067C644.2857142857142,3278.3244680851067 644.2857142857142,3242.81914893617 585.7142857142857,3242.81914893617"/><path class="link" d="M702.8571428571429,3349.3351063829787C644.2857142857142,3349.3351063829787 644.2857142857142,3384.840425531915 585.7142857142857,3384.840425531915"/><path class="link" d="M702.8571428571429,3420.345744680851C644.2857142857142,3420.345744680851 644.2857142857142,3384.840425531915 585.7142857142857,3384.840425531915"/><path class="link" d="M702.8571428571429,3491.3563829787236C644.2857142857142,3491.3563829787236 644.2857142857142,3526.8617021276596 585.7142857142857,3526.8617021276596"/><path class="link" d="M702.8571428571429,3562.367021276596C644.2857142857142,3562.367021276596 644.2857142857142,3526.8617021276596 585.7142857142857,3526.8617021276596"/><path class="link" d="M702.8571428571429,3633.3776595744685C644.2857142857142,3633.3776595744685 644.2857142857142,3668.8829787234044 585.7142857142857,3668.8829787234044"/><path class="link" d="M702.8571428571429,3704.3882978723404C644.2857142857142,3704.3882978723404 644.2857142857142,3668.8829787234044 585.7142857142857,3668.8829787234044"/><path class="link" d="M702.8571428571429,3775.398936170213C644.2857142857142,3775.398936170213 644.2857142857142,3810.9042553191493 585.7142857142857,3810.9042553191493"/><path class="link" d="M702.8571428571429,3846.4095744680853C644.2857142857142,3846.4095744680853 644.2857142857142,3810.9042553191493 585.7142857142857,3810.9042553191493"/><path class="link" d="M702.8571428571429,3917.420212765958C644.2857142857142,3917.420212765958 644.2857142857142,3952.925531914894 585.7142857142857,3952.925531914894"/><path class="link" d="M702.8571428571429,3988.43085106383C644.2857142857142,3988.43085106383 644.2857142857142,3952.925531914894 585.7142857142857,3952.925531914894"/><path class="link" d="M702.8571428571429,4059.441489361702C644.2857142857142,4059.441489361702 644.2857142857142,4094.9468085106387 585.7142857142857,4094.9468085106387"/><path class="link" d="M702.8571428571429,4130.452127659574C644.2857142857142,4130.452127659574 644.2857142857142,4094.9468085106387 585.7142857142857,4094.9468085106387"/><path class="link" d="M702.8571428571429,4201.462765957447C644.2857142857142,4201.462765957447 644.2857142857142,4236.968085106383 585.7142857142857,4236.968085106383"/><path class="link" d="M702.8571428571429,4272.473404255319C644.2857142857142,4272.473404255319 644.2857142857142,4236.968085106383 585.7142857142857,4236.968085106383"/><path class="link" d="M702.8571428571429,4343.484042553192C644.2857142857142,4343.484042553192 644.2857142857142,4378.989361702128 585.7142857142857,4378.989361702128"/><path class="link" d="M702.8571428571429,4414.494680851064C644.2857142857142,4414.494680851064 644.2857142857142,4378.989361702128 585.7142857142857,4378.989361702128"/><path class="link" d="M820,23.670212765957448C761.4285714285714,23.670212765957448 761.4285714285714,35.505319148936174 702.8571428571429,35.505319148936174"/><path class="link" d="M820,47.340425531914896C761.4285714285714,47.340425531914896 761.4285714285714,35.505319148936174 702.8571428571429,35.505319148936174"/><path class="link" d="M820,94.68085106382979C761.4285714285714,94.68085106382979 761.4285714285714,106.51595744680851 702.8571428571429,106.51595744680851"/><path class="link" d="M820,118.35106382978724C761.4285714285714,118.35106382978724 761.4285714285714,106.51595744680851 702.8571428571429,106.51595744680851"/><path class="link" d="M820,165.69148936170214C761.4285714285714,165.69148936170214 761.4285714285714,177.52659574468086 702.8571428571429,177.52659574468086"/><path class="link" d="M820,189.36170212765958C761.4285714285714,189.36170212765958 761.4285714285714,177.52659574468086 702.8571428571429,177.52659574468086"/><path class="link" d="M820,236.70212765957447C761.4285714285714,236.70212765957447 761.4285714285714,236.70212765957447 702.8571428571429,236.70212765957447"/><path class="link" d="M820,284.0425531914894C761.4285714285714,284.0425531914894 761.4285714285714,295.8776595744681 702.8571428571429,295.8776595744681"/><path class="link" d="M820,307.71276595744683C761.4285714285714,307.71276595744683 761.4285714285714,295.8776595744681 702.8571428571429,295.8776595744681"/><path class="link" d="M820,355.0531914893617C761.4285714285714,355.0531914893617 761.4285714285714,366.88829787234044 702.8571428571429,366.88829787234044"/><path class="link" d="M820,378.72340425531917C761.4285714285714,378.72340425531917 761.4285714285714,366.88829787234044 702.8571428571429,366.88829787234044"/><path class="link" d="M820,426.06382978723406C761.4285714285714,426.06382978723406 761.4285714285714,437.8989361702128 702.8571428571429,437.8989361702128"/><path class="link" d="M820,449.7340425531915C761.4285714285714,449.7340425531915 761.4285714285714,437.8989361702128 702.8571428571429,437.8989361702128"/><path class="link" d="M820,497.0744680851064C761.4285714285714,497.0744680851064 761.4285714285714,508.9095744680851 702.8571428571429,508.9095744680851"/><path class="link" d="M820,520.7446808510639C761.4285714285714,520.7446808510639 761.4285714285714,508.9095744680851 702.8571428571429,508.9095744680851"/><path class="link" d="M820,568.0851063829788C761.4285714285714,568.0851063829788 761.4285714285714,579.9202127659574 702.8571428571429,579.9202127659574"/><path class="link" d="M820,591.7553191489362C761.4285714285714,591.7553191489362 761.4285714285714,579.9202127659574 702.8571428571429,579.9202127659574"/><path class="link" d="M820,639.0957446808511C761.4285714285714,639.0957446808511 761.4285714285714,650.9308510638298 702.8571428571429,650.9308510638298"/><path class="link" d="M820,662.7659574468086C761.4285714285714,662.7659574468086 761.4285714285714,650.9308510638298 702.8571428571429,650.9308510638298"/><path class="link" d="M820,710.1063829787234C761.4285714285714,710.1063829787234 761.4285714285714,721.9414893617021 702.8571428571429,721.9414893617021"/><path class="link" d="M820,733.7765957446809C761.4285714285714,733.7765957446809 761.4285714285714,721.9414893617021 702.8571428571429,721.9414893617021"/><path class="link" d="M820,781.1170212765958C761.4285714285714,781.1170212765958 761.4285714285714,792.9521276595746 702.8571428571429,792.9521276595746"/><path class="link" d="M820,804.7872340425532C761.4285714285714,804.7872340425532 761.4285714285714,792.9521276595746 702.8571428571429,792.9521276595746"/><path class="link" d="M820,852.1276595744681C761.4285714285714,852.1276595744681 761.4285714285714,863.9627659574469 702.8571428571429,863.9627659574469"/><path class="link" d="M820,875.7978723404256C761.4285714285714,875.7978723404256 761.4285714285714,863.9627659574469 702.8571428571429,863.9627659574469"/><path class="link" d="M820,923.1382978723404C761.4285714285714,923.1382978723404 761.4285714285714,934.9734042553192 702.8571428571429,934.9734042553192"/><path class="link" d="M820,946.8085106382979C761.4285714285714,946.8085106382979 761.4285714285714,934.9734042553192 702.8571428571429,934.9734042553192"/><path class="link" d="M820,994.1489361702128C761.4285714285714,994.1489361702128 761.4285714285714,1005.9840425531916 702.8571428571429,1005.9840425531916"/><path class="link" d="M820,1017.8191489361702C761.4285714285714,1017.8191489361702 761.4285714285714,1005.9840425531916 702.8571428571429,1005.9840425531916"/><path class="link" d="M820,1065.159574468085C761.4285714285714,1065.159574468085 761.4285714285714,1076.9946808510638 702.8571428571429,1076.9946808510638"/><path class="link" d="M820,1088.8297872340427C761.4285714285714,1088.8297872340427 761.4285714285714,1076.9946808510638 702.8571428571429,1076.9946808510638"/><path class="link" d="M820,1136.1702127659576C761.4285714285714,1136.1702127659576 761.4285714285714,1148.0053191489362 702.8571428571429,1148.0053191489362"/><path class="link" d="M820,1159.840425531915C761.4285714285714,1159.840425531915 761.4285714285714,1148.0053191489362 702.8571428571429,1148.0053191489362"/><path class="link" d="M820,1207.1808510638298C761.4285714285714,1207.1808510638298 761.4285714285714,1219.0159574468087 702.8571428571429,1219.0159574468087"/><path class="link" d="M820,1230.8510638297873C761.4285714285714,1230.8510638297873 761.4285714285714,1219.0159574468087 702.8571428571429,1219.0159574468087"/><path class="link" d="M820,1278.1914893617022C761.4285714285714,1278.1914893617022 761.4285714285714,1290.026595744681 702.8571428571429,1290.026595744681"/><path class="link" d="M820,1301.8617021276596C761.4285714285714,1301.8617021276596 761.4285714285714,1290.026595744681 702.8571428571429,1290.026595744681"/><path class="link" d="M820,1349.2021276595744C761.4285714285714,1349.2021276595744 761.4285714285714,1361.0372340425533 702.8571428571429,1361.0372340425533"/><path class="link" d="M820,1372.872340425532C761.4285714285714,1372.872340425532 761.4285714285714,1361.0372340425533 702.8571428571429,1361.0372340425533"/><path class="link" d="M820,1420.212765957447C761.4285714285714,1420.212765957447 761.4285714285714,1432.0478723404256 702.8571428571429,1432.0478723404256"/><path class="link" d="M820,1443.8829787234042C761.4285714285714,1443.8829787234042 761.4285714285714,1432.0478723404256 702.8571428571429,1432.0478723404256"/><path class="link" d="M820,1491.223404255319C761.4285714285714,1491.223404255319 761.4285714285714,1503.058510638298 702.8571428571429,1503.058510638298"/><path class="link" d="M820,1514.8936170212767C761.4285714285714,1514.8936170212767 761.4285714285714,1503.058510638298 702.8571428571429,1503.058510638298"/><path class="link" d="M820,1562.2340425531916C761.4285714285714,1562.2340425531916 761.4285714285714,1574.0691489361702 702.8571428571429,1574.0691489361702"/><path class="link" d="M820,1585.9042553191491C761.4285714285714,1585.9042553191491 761.4285714285714,1574.0691489361702 702.8571428571429,1574.0691489361702"/><path class="link" d="M820,1633.244680851064C761.4285714285714,1633.244680851064 761.4285714285714,1645.0797872340427 702.8571428571429,1645.0797872340427"/><path class="link" d="M820,1656.9148936170213C761.4285714285714,1656.9148936170213 761.4285714285714,1645.0797872340427 702.8571428571429,1645.0797872340427"/><path class="link" d="M820,1704.2553191489362C761.4285714285714,1704.2553191489362 761.4285714285714,1716.090425531915 702.8571428571429,1716.090425531915"/><path class="link" d="M820,1727.9255319148938C761.4285714285714,1727.9255319148938 761.4285714285714,1716.090425531915 702.8571428571429,1716.090425531915"/><path class="link" d="M820,1775.2659574468087C761.4285714285714,1775.2659574468087 761.4285714285714,1787.1010638297873 702.8571428571429,1787.1010638297873"/><path class="link" d="M820,1798.936170212766C761.4285714285714,1798.936170212766 761.4285714285714,1787.1010638297873 702.8571428571429,1787.1010638297873"/><path class="link" d="M820,1846.276595744681C761.4285714285714,1846.276595744681 761.4285714285714,1858.1117021276596 702.8571428571429,1858.1117021276596"/><path class="link" d="M820,1869.9468085106384C761.4285714285714,1869.9468085106384 761.4285714285714,1858.1117021276596 702.8571428571429,1858.1117021276596"/><path class="link" d="M820,1917.2872340425533C761.4285714285714,1917.2872340425533 761.4285714285714,1929.122340425532 702.8571428571429,1929.122340425532"/><path class="link" d="M820,1940.9574468085107C761.4285714285714,1940.9574468085107 761.4285714285714,1929.122340425532 702.8571428571429,1929.122340425532"/><path class="link" d="M820,1988.2978723404256C761.4285714285714,1988.2978723404256 761.4285714285714,2000.1329787234044 702.8571428571429,2000.1329787234044"/><path class="link" d="M820,2011.9680851063831C761.4285714285714,2011.9680851063831 761.4285714285714,2000.1329787234044 702.8571428571429,2000.1329787234044"/><path class="link" d="M820,2059.308510638298C761.4285714285714,2059.308510638298 761.4285714285714,2071.143617021277 702.8571428571429,2071.143617021277"/><path class="link" d="M820,2082.9787234042556C761.4285714285714,2082.9787234042556 761.4285714285714,2071.143617021277 702.8571428571429,2071.143617021277"/><path class="link" d="M820,2130.31914893617C761.4285714285714,2130.31914893617 761.4285714285714,2142.154255319149 702.8571428571429,2142.154255319149"/><path class="link" d="M820,2153.9893617021276C761.4285714285714,2153.9893617021276 761.4285714285714,2142.154255319149 702.8571428571429,2142.154255319149"/><path class="link" d="M820,2201.3297872340427C761.4285714285714,2201.3297872340427 761.4285714285714,2213.1648936170213 702.8571428571429,2213.1648936170213"/><path class="link" d="M820,2225C761.4285714285714,2225 761.4285714285714,2213.1648936170213 702.8571428571429,2213.1648936170213"/><path class="link" d="M820,2272.340425531915C761.4285714285714,2272.340425531915 761.4285714285714,2284.175531914894 702.8571428571429,2284.175531914894"/><path class="link" d="M820,2296.0106382978724C761.4285714285714,2296.0106382978724 761.4285714285714,2284.175531914894 702.8571428571429,2284.175531914894"/><path class="link" d="M820,2343.3510638297876C761.4285714285714,2343.3510638297876 761.4285714285714,2355.1861702127662 702.8571428571429,2355.1861702127662"/><path class="link" d="M820,2367.021276595745C761.4285714285714,2367.021276595745 761.4285714285714,2355.1861702127662 702.8571428571429,2355.1861702127662"/><path class="link" d="M820,2414.3617021276596C761.4285714285714,2414.3617021276596 761.4285714285714,2426.196808510638 702.8571428571429,2426.196808510638"/><path class="link" d="M820,2438.0319148936173C761.4285714285714,2438.0319148936173 761.4285714285714,2426.196808510638 702.8571428571429,2426.196808510638"/><path class="link" d="M820,2485.372340425532C761.4285714285714,2485.372340425532 761.4285714285714,2497.2074468085107 702.8571428571429,2497.2074468085107"/><path class="link" d="M820,2509.0425531914893C761.4285714285714,2509.0425531914893 761.4285714285714,2497.2074468085107 702.8571428571429,2497.2074468085107"/><path class="link" d="M820,2556.3829787234044C761.4285714285714,2556.3829787234044 761.4285714285714,2568.218085106383 702.8571428571429,2568.218085106383"/><path class="link" d="M820,2580.053191489362C761.4285714285714,2580.053191489362 761.4285714285714,2568.218085106383 702.8571428571429,2568.218085106383"/><path class="link" d="M820,2627.393617021277C761.4285714285714,2627.393617021277 761.4285714285714,2639.2287234042556 702.8571428571429,2639.2287234042556"/><path class="link" d="M820,2651.063829787234C761.4285714285714,2651.063829787234 761.4285714285714,2639.2287234042556 702.8571428571429,2639.2287234042556"/><path class="link" d="M820,2698.404255319149C761.4285714285714,2698.404255319149 761.4285714285714,2710.239361702128 702.8571428571429,2710.239361702128"/><path class="link" d="M820,2722.0744680851067C761.4285714285714,2722.0744680851067 761.4285714285714,2710.239361702128 702.8571428571429,2710.239361702128"/><path class="link" d="M820,2769.4148936170213C761.4285714285714,2769.4148936170213 761.4285714285714,2781.25 702.8571428571429,2781.25"/><path class="link" d="M820,2793.0851063829787C761.4285714285714,2793.0851063829787 761.4285714285714,2781.25 702.8571428571429,2781.25"/><path class="link" d="M820,2840.425531914894C761.4285714285714,2840.425531914894 761.4285714285714,2852.2606382978724 702.8571428571429,2852.2606382978724"/><path class="link" d="M820,2864.095744680851C761.4285714285714,2864.095744680851 761.4285714285714,2852.2606382978724 702.8571428571429,2852.2606382978724"/><path class="link" d="M820,2911.4361702127662C761.4285714285714,2911.4361702127662 761.4285714285714,2923.271276595745 702.8571428571429,2923.271276595745"/><path class="link" d="M820,2935.1063829787236C761.4285714285714,2935.1063829787236 761.4285714285714,2923.271276595745 702.8571428571429,2923.271276595745"/><path class="link" d="M820,2982.446808510638C761.4285714285714,2982.446808510638 761.4285714285714,2994.2819148936173 702.8571428571429,2994.2819148936173"/><path class="link" d="M820,3006.117021276596C761.4285714285714,3006.117021276596 761.4285714285714,2994.2819148936173 702.8571428571429,2994.2819148936173"/><path class="link" d="M820,3053.4574468085107C761.4285714285714,3053.4574468085107 761.4285714285714,3065.2925531914893 702.8571428571429,3065.2925531914893"/><path class="link" d="M820,3077.1276595744685C761.4285714285714,3077.1276595744685 761.4285714285714,3065.2925531914893 702.8571428571429,3065.2925531914893"/><path class="link" d="M820,3124.468085106383C761.4285714285714,3124.468085106383 761.4285714285714,3136.303191489362 702.8571428571429,3136.303191489362"/><path class="link" d="M820,3148.1382978723404C761.4285714285714,3148.1382978723404 761.4285714285714,3136.303191489362 702.8571428571429,3136.303191489362"/><path class="link" d="M820,3195.4787234042556C761.4285714285714,3195.4787234042556 761.4285714285714,3207.313829787234 702.8571428571429,3207.313829787234"/><path class="link" d="M820,3219.148936170213C761.4285714285714,3219.148936170213 761.4285714285714,3207.313829787234 702.8571428571429,3207.313829787234"/><path class="link" d="M820,3266.489361702128C761.4285714285714,3266.489361702128 761.4285714285714,3278.3244680851067 702.8571428571429,3278.3244680851067"/><path class="link" d="M820,3290.1595744680853C761.4285714285714,3290.1595744680853 761.4285714285714,3278.3244680851067 702.8571428571429,3278.3244680851067"/><path class="link" d="M820,3337.5C761.4285714285714,3337.5 761.4285714285714,3349.3351063829787 702.8571428571429,3349.3351063829787"/><path class="link" d="M820,3361.170212765958C761.4285714285714,3361.170212765958 761.4285714285714,3349.3351063829787 702.8571428571429,3349.3351063829787"/><path class="link" d="M820,3408.5106382978724C761.4285714285714,3408.5106382978724 761.4285714285714,3420.345744680851 702.8571428571429,3420.345744680851"/><path class="link" d="M820,3432.18085106383C761.4285714285714,3432.18085106383 761.4285714285714,3420.345744680851 702.8571428571429,3420.345744680851"/><path class="link" d="M820,3479.521276595745C761.4285714285714,3479.521276595745 761.4285714285714,3491.3563829787236 702.8571428571429,3491.3563829787236"/><path class="link" d="M820,3503.191489361702C761.4285714285714,3503.191489361702 761.4285714285714,3491.3563829787236 702.8571428571429,3491.3563829787236"/><path class="link" d="M820,3550.5319148936173C761.4285714285714,3550.5319148936173 761.4285714285714,3562.367021276596 702.8571428571429,3562.367021276596"/><path class="link" d="M820,3574.2021276595747C761.4285714285714,3574.2021276595747 761.4285714285714,3562.367021276596 702.8571428571429,3562.367021276596"/><path class="link" d="M820,3621.5425531914893C761.4285714285714,3621.5425531914893 761.4285714285714,3633.3776595744685 702.8571428571429,3633.3776595744685"/><path class="link" d="M820,3645.212765957447C761.4285714285714,3645.212765957447 761.4285714285714,3633.3776595744685 702.8571428571429,3633.3776595744685"/><path class="link" d="M820,3692.553191489362C761.4285714285714,3692.553191489362 761.4285714285714,3704.3882978723404 702.8571428571429,3704.3882978723404"/><path class="link" d="M820,3716.223404255319C761.4285714285714,3716.223404255319 761.4285714285714,3704.3882978723404 702.8571428571429,3704.3882978723404"/><path class="link" d="M820,3763.563829787234C761.4285714285714,3763.563829787234 761.4285714285714,3775.398936170213 702.8571428571429,3775.398936170213"/><path class="link" d="M820,3787.2340425531916C761.4285714285714,3787.2340425531916 761.4285714285714,3775.398936170213 702.8571428571429,3775.398936170213"/><path class="link" d="M820,3834.5744680851067C761.4285714285714,3834.5744680851067 761.4285714285714,3846.4095744680853 702.8571428571429,3846.4095744680853"/><path class="link" d="M820,3858.244680851064C761.4285714285714,3858.244680851064 761.4285714285714,3846.4095744680853 702.8571428571429,3846.4095744680853"/><path class="link" d="M820,3905.585106382979C761.4285714285714,3905.585106382979 761.4285714285714,3917.420212765958 702.8571428571429,3917.420212765958"/><path class="link" d="M820,3929.2553191489365C761.4285714285714,3929.2553191489365 761.4285714285714,3917.420212765958 702.8571428571429,3917.420212765958"/><path class="link" d="M820,3976.595744680851C761.4285714285714,3976.595744680851 761.4285714285714,3988.43085106383 702.8571428571429,3988.43085106383"/><path class="link" d="M820,4000.265957446809C761.4285714285714,4000.265957446809 761.4285714285714,3988.43085106383 702.8571428571429,3988.43085106383"/><path class="link" d="M820,4047.6063829787236C761.4285714285714,4047.6063829787236 761.4285714285714,4059.441489361702 702.8571428571429,4059.441489361702"/><path class="link" d="M820,4071.276595744681C761.4285714285714,4071.276595744681 761.4285714285714,4059.441489361702 702.8571428571429,4059.441489361702"/><path class="link" d="M820,4118.617021276596C761.4285714285714,4118.617021276596 761.4285714285714,4130.452127659574 702.8571428571429,4130.452127659574"/><path class="link" d="M820,4142.287234042554C761.4285714285714,4142.287234042554 761.4285714285714,4130.452127659574 702.8571428571429,4130.452127659574"/><path class="link" d="M820,4189.627659574468C761.4285714285714,4189.627659574468 761.4285714285714,4201.462765957447 702.8571428571429,4201.462765957447"/><path class="link" d="M820,4213.297872340426C761.4285714285714,4213.297872340426 761.4285714285714,4201.462765957447 702.8571428571429,4201.462765957447"/><path class="link" d="M820,4260.63829787234C761.4285714285714,4260.63829787234 761.4285714285714,4272.473404255319 702.8571428571429,4272.473404255319"/><path class="link" d="M820,4284.308510638298C761.4285714285714,4284.308510638298 761.4285714285714,4272.473404255319 702.8571428571429,4272.473404255319"/><path class="link" d="M820,4331.648936170213C761.4285714285714,4331.648936170213 761.4285714285714,4343.484042553192 702.8571428571429,4343.484042553192"/><path class="link" d="M820,4355.319148936171C761.4285714285714,4355.319148936171 761.4285714285714,4343.484042553192 702.8571428571429,4343.484042553192"/><path class="link" d="M820,4402.659574468085C761.4285714285714,4402.659574468085 761.4285714285714,4414.494680851064 702.8571428571429,4414.494680851064"/><path class="link" d="M820,4426.329787234043C761.4285714285714,4426.329787234043 761.4285714285714,4414.494680851064 702.8571428571429,4414.494680851064"/><g class="node node--internal" transform="translate(0,2180.433427526596)"><circle r="10"/><text dy=".35em" x="-13" style="text-anchor: end;">x 0</text></g><g class="node node--internal" transform="translate(117.14285714285714,1047.037067819149)"><circle r="10"/><text dy=".35em" x="-13" style="text-anchor: end;">u 0.31215</text></g><g class="node node--internal" transform="translate(117.14285714285714,3313.8297872340427)"><circle r="10"/><text dy=".35em" x="-13" style="text-anchor: end;">- 0.68645</text></g><g class="node node--internal" transform="translate(234.28571428571428,484.4996675531915)"><circle r="10"/><text dy=".35em" x="-13" style="text-anchor: end;">u 0.28635</text></g><g class="node node--internal" transform="translate(234.28571428571428,1609.5744680851064)"><circle r="10"/><text dy=".35em" x="-13" style="text-anchor: end;">- 0.71365</text></g><g class="node node--internal" transform="translate(234.28571428571428,2745.744680851064)"><circle r="10"/><text dy=".35em" x="-13" style="text-anchor: end;">u 0.40488</text></g><g class="node node--internal" transform="translate(234.28571428571428,3881.9148936170213)"><circle r="10"/><text dy=".35em" x="-13" style="text-anchor: end;">- 0.59512</text></g><g class="node node--internal" transform="translate(351.42857142857144,211.5525265957447)"><circle r="10"/><text dy=".35em" x="-13" style="text-anchor: end;">u 0.36719</text></g><g class="node node--internal" transform="translate(351.42857142857144,757.4468085106383)"><circle r="10"/><text dy=".35em" x="-13" style="text-anchor: end;">- 0.63281</text></g><g class="node node--internal" transform="translate(351.42857142857144,1325.531914893617)"><circle r="10"/><text dy=".35em" x="-13" style="text-anchor: end;">u 0.34169</text></g><g class="node node--internal" transform="translate(351.42857142857144,1893.6170212765958)"><circle r="10"/><text dy=".35em" x="-13" style="text-anchor: end;">- 0.65831</text></g><g class="node node--internal" transform="translate(351.42857142857144,2461.7021276595747)"><circle r="10"/><text dy=".35em" x="-13" style="text-anchor: end;">u 0.32915</text></g><g class="node node--internal" transform="translate(351.42857142857144,3029.7872340425533)"><circle r="10"/><text dy=".35em" x="-13" style="text-anchor: end;">- 0.67085</text></g><g class="node node--internal" transform="translate(351.42857142857144,3597.872340425532)"><circle r="10"/><text dy=".35em" x="-13" style="text-anchor: end;">u 0.48547</text></g><g class="node node--internal" transform="translate(351.42857142857144,4165.957446808511)"><circle r="10"/><text dy=".35em" x="-13" style="text-anchor: end;">- 0.51453</text></g><g class="node node--internal" transform="translate(468.57142857142856,88.76329787234043)"><circle r="10"/><text dy=".35em" x="-13" style="text-anchor: end;">u 0.2766</text></g><g class="node node--internal" transform="translate(468.57142857142856,334.34175531914894)"><circle r="10"/><text dy=".35em" x="-13" style="text-anchor: end;">- 0.7234</text></g><g class="node node--internal" transform="translate(468.57142857142856,615.4255319148937)"><circle r="10"/><text dy=".35em" x="-13" style="text-anchor: end;">u 0.41975</text></g><g class="node node--internal" transform="translate(468.57142857142856,899.468085106383)"><circle r="10"/><text dy=".35em" x="-13" style="text-anchor: end;">- 0.58025</text></g><g class="node node--internal" transform="translate(468.57142857142856,1183.5106382978724)"><circle r="10"/><text dy=".35em" x="-13" style="text-anchor: end;">u 0.31193</text></g><g class="node node--internal" transform="translate(468.57142857142856,1467.5531914893618)"><circle r="10"/><text dy=".35em" x="-13" style="text-anchor: end;">- 0.68807</text></g><g class="node node--internal" transform="translate(468.57142857142856,1751.595744680851)"><circle r="10"/><text dy=".35em" x="-13" style="text-anchor: end;">u 0.4381</text></g><g class="node node--internal" transform="translate(468.57142857142856,2035.6382978723404)"><circle r="10"/><text dy=".35em" x="-13" style="text-anchor: end;">- 0.5619</text></g><g class="node node--internal" transform="translate(468.57142857142856,2319.68085106383)"><circle r="10"/><text dy=".35em" x="-13" style="text-anchor: end;">u 0.38168</text></g><g class="node node--internal" transform="translate(468.57142857142856,2603.723404255319)"><circle r="10"/><text dy=".35em" x="-13" style="text-anchor: end;">- 0.61832</text></g><g class="node node--internal" transform="translate(468.57142857142856,2887.7659574468084)"><circle r="10"/><text dy=".35em" x="-13" style="text-anchor: end;">u 0.37453</text></g><g class="node node--internal" transform="translate(468.57142857142856,3171.8085106382982)"><circle r="10"/><text dy=".35em" x="-13" style="text-anchor: end;">- 0.62547</text></g><g class="node node--internal" transform="translate(468.57142857142856,3455.8510638297876)"><circle r="10"/><text dy=".35em" x="-13" style="text-anchor: end;">u 0.26408</text></g><g class="node node--internal" transform="translate(468.57142857142856,3739.893617021277)"><circle r="10"/><text dy=".35em" x="-13" style="text-anchor: end;">- 0.73592</text></g><g class="node node--internal" transform="translate(468.57142857142856,4023.9361702127662)"><circle r="10"/><text dy=".35em" x="-13" style="text-anchor: end;">u 0.41528</text></g><g class="node node--internal" transform="translate(468.57142857142856,4307.978723404255)"><circle r="10"/><text dy=".35em" x="-13" style="text-anchor: end;">- 0.58472</text></g><g class="node node--internal" transform="translate(585.7142857142857,35.505319148936174)"><circle r="10"/><text dy=".35em" x="-13" style="text-anchor: end;">u 0.38462</text></g><g class="node node--internal" transform="translate(585.7142857142857,142.0212765957447)"><circle r="10"/><text dy=".35em" x="-13" style="text-anchor: end;">- 0.61538</text></g><g class="node node--internal" transform="translate(585.7142857142857,266.2898936170213)"><circle r="10"/><text dy=".35em" x="-13" style="text-anchor: end;">u 0.47059</text></g><g class="node node--internal" transform="translate(585.7142857142857,402.3936170212766)"><circle r="10"/><text dy=".35em" x="-13" style="text-anchor: end;">- 0.52941</text></g><g class="node node--internal" transform="translate(585.7142857142857,544.4148936170213)"><circle r="10"/><text dy=".35em" x="-13" style="text-anchor: end;">u 0.32353</text></g><g class="node node--internal" transform="translate(585.7142857142857,686.436170212766)"><circle r="10"/><text dy=".35em" x="-13" style="text-anchor: end;">- 0.67647</text></g><g class="node node--internal" transform="translate(585.7142857142857,828.4574468085107)"><circle r="10"/><text dy=".35em" x="-13" style="text-anchor: end;">u 0.38298</text></g><g class="node node--internal" transform="translate(585.7142857142857,970.4787234042553)"><circle r="10"/><text dy=".35em" x="-13" style="text-anchor: end;">- 0.61702</text></g><g class="node node--internal" transform="translate(585.7142857142857,1112.5)"><circle r="10"/><text dy=".35em" x="-13" style="text-anchor: end;">u 0.38235</text></g><g class="node node--internal" transform="translate(585.7142857142857,1254.5212765957447)"><circle r="10"/><text dy=".35em" x="-13" style="text-anchor: end;">- 0.61765</text></g><g class="node node--internal" transform="translate(585.7142857142857,1396.5425531914893)"><circle r="10"/><text dy=".35em" x="-13" style="text-anchor: end;">u 0.49333</text></g><g class="node node--internal" transform="translate(585.7142857142857,1538.5638297872342)"><circle r="10"/><text dy=".35em" x="-13" style="text-anchor: end;">- 0.50667</text></g><g class="node node--internal" transform="translate(585.7142857142857,1680.585106382979)"><circle r="10"/><text dy=".35em" x="-13" style="text-anchor: end;">u 0.32609</text></g><g class="node node--internal" transform="translate(585.7142857142857,1822.6063829787236)"><circle r="10"/><text dy=".35em" x="-13" style="text-anchor: end;">- 0.67391</text></g><g class="node node--internal" transform="translate(585.7142857142857,1964.6276595744682)"><circle r="10"/><text dy=".35em" x="-13" style="text-anchor: end;">u 0.42373</text></g><g class="node node--internal" transform="translate(585.7142857142857,2106.648936170213)"><circle r="10"/><text dy=".35em" x="-13" style="text-anchor: end;">- 0.57627</text></g><g class="node node--internal" transform="translate(585.7142857142857,2248.6702127659573)"><circle r="10"/><text dy=".35em" x="-13" style="text-anchor: end;">u 0.3</text></g><g class="node node--internal" transform="translate(585.7142857142857,2390.691489361702)"><circle r="10"/><text dy=".35em" x="-13" style="text-anchor: end;">- 0.7</text></g><g class="node node--internal" transform="translate(585.7142857142857,2532.712765957447)"><circle r="10"/><text dy=".35em" x="-13" style="text-anchor: end;">u 0.46914</text></g><g class="node node--internal" transform="translate(585.7142857142857,2674.7340425531916)"><circle r="10"/><text dy=".35em" x="-13" style="text-anchor: end;">- 0.53086</text></g><g class="node node--internal" transform="translate(585.7142857142857,2816.7553191489365)"><circle r="10"/><text dy=".35em" x="-13" style="text-anchor: end;">u 0.36</text></g><g class="node node--internal" transform="translate(585.7142857142857,2958.776595744681)"><circle r="10"/><text dy=".35em" x="-13" style="text-anchor: end;">- 0.64</text></g><g class="node node--internal" transform="translate(585.7142857142857,3100.797872340426)"><circle r="10"/><text dy=".35em" x="-13" style="text-anchor: end;">u 0.49701</text></g><g class="node node--internal" transform="translate(585.7142857142857,3242.81914893617)"><circle r="10"/><text dy=".35em" x="-13" style="text-anchor: end;">- 0.50299</text></g><g class="node node--internal" transform="translate(585.7142857142857,3384.840425531915)"><circle r="10"/><text dy=".35em" x="-13" style="text-anchor: end;">u 0.50667</text></g><g class="node node--internal" transform="translate(585.7142857142857,3526.8617021276596)"><circle r="10"/><text dy=".35em" x="-13" style="text-anchor: end;">- 0.49333</text></g><g class="node node--internal" transform="translate(585.7142857142857,3668.8829787234044)"><circle r="10"/><text dy=".35em" x="-13" style="text-anchor: end;">u 0.41148</text></g><g class="node node--internal" transform="translate(585.7142857142857,3810.9042553191493)"><circle r="10"/><text dy=".35em" x="-13" style="text-anchor: end;">- 0.58852</text></g><g class="node node--internal" transform="translate(585.7142857142857,3952.925531914894)"><circle r="10"/><text dy=".35em" x="-13" style="text-anchor: end;">u 0.376</text></g><g class="node node--internal" transform="translate(585.7142857142857,4094.9468085106387)"><circle r="10"/><text dy=".35em" x="-13" style="text-anchor: end;">- 0.624</text></g><g class="node node--internal" transform="translate(585.7142857142857,4236.968085106383)"><circle r="10"/><text dy=".35em" x="-13" style="text-anchor: end;">u 0.40909</text></g><g class="node node--internal" transform="translate(585.7142857142857,4378.989361702128)"><circle r="10"/><text dy=".35em" x="-13" style="text-anchor: end;">- 0.59091</text></g><g class="node node--internal" transform="translate(702.8571428571429,35.505319148936174)"><circle r="10"/><text dy=".35em" x="-13" style="text-anchor: end;">- 1.0</text></g><g class="node node--internal" transform="translate(702.8571428571429,106.51595744680851)"><circle r="10"/><text dy=".35em" x="-13" style="text-anchor: end;">u 0.5</text></g><g class="node node--internal" transform="translate(702.8571428571429,177.52659574468086)"><circle r="10"/><text dy=".35em" x="-13" style="text-anchor: end;">- 0.5</text></g><g class="node node--internal" transform="translate(702.8571428571429,236.70212765957447)"><circle r="10"/><text dy=".35em" x="-13" style="text-anchor: end;">u 0.125</text></g><g class="node node--internal" transform="translate(702.8571428571429,295.8776595744681)"><circle r="10"/><text dy=".35em" x="-13" style="text-anchor: end;">- 0.875</text></g><g class="node node--internal" transform="translate(702.8571428571429,366.88829787234044)"><circle r="10"/><text dy=".35em" x="-13" style="text-anchor: end;">u 0.5</text></g><g class="node node--internal" transform="translate(702.8571428571429,437.8989361702128)"><circle r="10"/><text dy=".35em" x="-13" style="text-anchor: end;">- 0.5</text></g><g class="node node--internal" transform="translate(702.8571428571429,508.9095744680851)"><circle r="10"/><text dy=".35em" x="-13" style="text-anchor: end;">u 0.54545</text></g><g class="node node--internal" transform="translate(702.8571428571429,579.9202127659574)"><circle r="10"/><text dy=".35em" x="-13" style="text-anchor: end;">- 0.45455</text></g><g class="node node--internal" transform="translate(702.8571428571429,650.9308510638298)"><circle r="10"/><text dy=".35em" x="-13" style="text-anchor: end;">u 0.47826</text></g><g class="node node--internal" transform="translate(702.8571428571429,721.9414893617021)"><circle r="10"/><text dy=".35em" x="-13" style="text-anchor: end;">- 0.52174</text></g><g class="node node--internal" transform="translate(702.8571428571429,792.9521276595746)"><circle r="10"/><text dy=".35em" x="-13" style="text-anchor: end;">u 0.27778</text></g><g class="node node--internal" transform="translate(702.8571428571429,863.9627659574469)"><circle r="10"/><text dy=".35em" x="-13" style="text-anchor: end;">- 0.72222</text></g><g class="node node--internal" transform="translate(702.8571428571429,934.9734042553192)"><circle r="10"/><text dy=".35em" x="-13" style="text-anchor: end;">u 0.51724</text></g><g class="node node--internal" transform="translate(702.8571428571429,1005.9840425531916)"><circle r="10"/><text dy=".35em" x="-13" style="text-anchor: end;">- 0.48276</text></g><g class="node node--internal" transform="translate(702.8571428571429,1076.9946808510638)"><circle r="10"/><text dy=".35em" x="-13" style="text-anchor: end;">u 0.38462</text></g><g class="node node--internal" transform="translate(702.8571428571429,1148.0053191489362)"><circle r="10"/><text dy=".35em" x="-13" style="text-anchor: end;">- 0.61538</text></g><g class="node node--internal" transform="translate(702.8571428571429,1219.0159574468087)"><circle r="10"/><text dy=".35em" x="-13" style="text-anchor: end;">u 0.42857</text></g><g class="node node--internal" transform="translate(702.8571428571429,1290.026595744681)"><circle r="10"/><text dy=".35em" x="-13" style="text-anchor: end;">- 0.57143</text></g><g class="node node--internal" transform="translate(702.8571428571429,1361.0372340425533)"><circle r="10"/><text dy=".35em" x="-13" style="text-anchor: end;">u 0.2973</text></g><g class="node node--internal" transform="translate(702.8571428571429,1432.0478723404256)"><circle r="10"/><text dy=".35em" x="-13" style="text-anchor: end;">- 0.7027</text></g><g class="node node--internal" transform="translate(702.8571428571429,1503.058510638298)"><circle r="10"/><text dy=".35em" x="-13" style="text-anchor: end;">u 0.44737</text></g><g class="node node--internal" transform="translate(702.8571428571429,1574.0691489361702)"><circle r="10"/><text dy=".35em" x="-13" style="text-anchor: end;">- 0.55263</text></g><g class="node node--internal" transform="translate(702.8571428571429,1645.0797872340427)"><circle r="10"/><text dy=".35em" x="-13" style="text-anchor: end;">u 0.63333</text></g><g class="node node--internal" transform="translate(702.8571428571429,1716.090425531915)"><circle r="10"/><text dy=".35em" x="-13" style="text-anchor: end;">- 0.36667</text></g><g class="node node--internal" transform="translate(702.8571428571429,1787.1010638297873)"><circle r="10"/><text dy=".35em" x="-13" style="text-anchor: end;">u 0.5</text></g><g class="node node--internal" transform="translate(702.8571428571429,1858.1117021276596)"><circle r="10"/><text dy=".35em" x="-13" style="text-anchor: end;">- 0.5</text></g><g class="node node--internal" transform="translate(702.8571428571429,1929.122340425532)"><circle r="10"/><text dy=".35em" x="-13" style="text-anchor: end;">u 0.32</text></g><g class="node node--internal" transform="translate(702.8571428571429,2000.1329787234044)"><circle r="10"/><text dy=".35em" x="-13" style="text-anchor: end;">- 0.68</text></g><g class="node node--internal" transform="translate(702.8571428571429,2071.143617021277)"><circle r="10"/><text dy=".35em" x="-13" style="text-anchor: end;">u 0.44118</text></g><g class="node node--internal" transform="translate(702.8571428571429,2142.154255319149)"><circle r="10"/><text dy=".35em" x="-13" style="text-anchor: end;">- 0.55882</text></g><g class="node node--internal" transform="translate(702.8571428571429,2213.1648936170213)"><circle r="10"/><text dy=".35em" x="-13" style="text-anchor: end;">u 0.46667</text></g><g class="node node--internal" transform="translate(702.8571428571429,2284.175531914894)"><circle r="10"/><text dy=".35em" x="-13" style="text-anchor: end;">- 0.53333</text></g><g class="node node--internal" transform="translate(702.8571428571429,2355.1861702127662)"><circle r="10"/><text dy=".35em" x="-13" style="text-anchor: end;">u 0.4</text></g><g class="node node--internal" transform="translate(702.8571428571429,2426.196808510638)"><circle r="10"/><text dy=".35em" x="-13" style="text-anchor: end;">- 0.6</text></g><g class="node node--internal" transform="translate(702.8571428571429,2497.2074468085107)"><circle r="10"/><text dy=".35em" x="-13" style="text-anchor: end;">u 0.36842</text></g><g class="node node--internal" transform="translate(702.8571428571429,2568.218085106383)"><circle r="10"/><text dy=".35em" x="-13" style="text-anchor: end;">- 0.63158</text></g><g class="node node--internal" transform="translate(702.8571428571429,2639.2287234042556)"><circle r="10"/><text dy=".35em" x="-13" style="text-anchor: end;">u 0.30233</text></g><g class="node node--internal" transform="translate(702.8571428571429,2710.239361702128)"><circle r="10"/><text dy=".35em" x="-13" style="text-anchor: end;">- 0.69767</text></g><g class="node node--internal" transform="translate(702.8571428571429,2781.25)"><circle r="10"/><text dy=".35em" x="-13" style="text-anchor: end;">u 0.22222</text></g><g class="node node--internal" transform="translate(702.8571428571429,2852.2606382978724)"><circle r="10"/><text dy=".35em" x="-13" style="text-anchor: end;">- 0.77778</text></g><g class="node node--internal" transform="translate(702.8571428571429,2923.271276595745)"><circle r="10"/><text dy=".35em" x="-13" style="text-anchor: end;">u 0.40625</text></g><g class="node node--internal" transform="translate(702.8571428571429,2994.2819148936173)"><circle r="10"/><text dy=".35em" x="-13" style="text-anchor: end;">- 0.59375</text></g><g class="node node--internal" transform="translate(702.8571428571429,3065.2925531914893)"><circle r="10"/><text dy=".35em" x="-13" style="text-anchor: end;">u 0.37349</text></g><g class="node node--internal" transform="translate(702.8571428571429,3136.303191489362)"><circle r="10"/><text dy=".35em" x="-13" style="text-anchor: end;">- 0.62651</text></g><g class="node node--internal" transform="translate(702.8571428571429,3207.313829787234)"><circle r="10"/><text dy=".35em" x="-13" style="text-anchor: end;">u 0.41667</text></g><g class="node node--internal" transform="translate(702.8571428571429,3278.3244680851067)"><circle r="10"/><text dy=".35em" x="-13" style="text-anchor: end;">- 0.58333</text></g><g class="node node--internal" transform="translate(702.8571428571429,3349.3351063829787)"><circle r="10"/><text dy=".35em" x="-13" style="text-anchor: end;">u 0.28947</text></g><g class="node node--internal" transform="translate(702.8571428571429,3420.345744680851)"><circle r="10"/><text dy=".35em" x="-13" style="text-anchor: end;">- 0.71053</text></g><g class="node node--internal" transform="translate(702.8571428571429,3491.3563829787236)"><circle r="10"/><text dy=".35em" x="-13" style="text-anchor: end;">u 0.27027</text></g><g class="node node--internal" transform="translate(702.8571428571429,3562.367021276596)"><circle r="10"/><text dy=".35em" x="-13" style="text-anchor: end;">- 0.72973</text></g><g class="node node--internal" transform="translate(702.8571428571429,3633.3776595744685)"><circle r="10"/><text dy=".35em" x="-13" style="text-anchor: end;">u 0.38372</text></g><g class="node node--internal" transform="translate(702.8571428571429,3704.3882978723404)"><circle r="10"/><text dy=".35em" x="-13" style="text-anchor: end;">- 0.61628</text></g><g class="node node--internal" transform="translate(702.8571428571429,3775.398936170213)"><circle r="10"/><text dy=".35em" x="-13" style="text-anchor: end;">u 0.43902</text></g><g class="node node--internal" transform="translate(702.8571428571429,3846.4095744680853)"><circle r="10"/><text dy=".35em" x="-13" style="text-anchor: end;">- 0.56098</text></g><g class="node node--internal" transform="translate(702.8571428571429,3917.420212765958)"><circle r="10"/><text dy=".35em" x="-13" style="text-anchor: end;">u 0.29787</text></g><g class="node node--internal" transform="translate(702.8571428571429,3988.43085106383)"><circle r="10"/><text dy=".35em" x="-13" style="text-anchor: end;">- 0.70213</text></g><g class="node node--internal" transform="translate(702.8571428571429,4059.441489361702)"><circle r="10"/><text dy=".35em" x="-13" style="text-anchor: end;">u 0.41026</text></g><g class="node node--internal" transform="translate(702.8571428571429,4130.452127659574)"><circle r="10"/><text dy=".35em" x="-13" style="text-anchor: end;">- 0.58974</text></g><g class="node node--internal" transform="translate(702.8571428571429,4201.462765957447)"><circle r="10"/><text dy=".35em" x="-13" style="text-anchor: end;">u 0.38889</text></g><g class="node node--internal" transform="translate(702.8571428571429,4272.473404255319)"><circle r="10"/><text dy=".35em" x="-13" style="text-anchor: end;">- 0.61111</text></g><g class="node node--internal" transform="translate(702.8571428571429,4343.484042553192)"><circle r="10"/><text dy=".35em" x="-13" style="text-anchor: end;">u 0.48077</text></g><g class="node node--internal" transform="translate(702.8571428571429,4414.494680851064)"><circle r="10"/><text dy=".35em" x="-13" style="text-anchor: end;">- 0.51923</text></g><g class="node node--leaf" transform="translate(820,23.670212765957448)"><circle r="10"/><text dy=".35em" x="13" style="text-anchor: start;">u 0.8</text></g><g class="node node--leaf" transform="translate(820,47.340425531914896)"><circle r="10"/><text dy=".35em" x="13" style="text-anchor: start;">- 0.2</text></g><g class="node node--leaf" transform="translate(820,94.68085106382979)"><circle r="10"/><text dy=".35em" x="13" style="text-anchor: start;">u 0.25</text></g><g class="node node--leaf" transform="translate(820,118.35106382978724)"><circle r="10"/><text dy=".35em" x="13" style="text-anchor: start;">- 0.75</text></g><g class="node node--leaf" transform="translate(820,165.69148936170214)"><circle r="10"/><text dy=".35em" x="13" style="text-anchor: start;">u 0.5</text></g><g class="node node--leaf" transform="translate(820,189.36170212765958)"><circle r="10"/><text dy=".35em" x="13" style="text-anchor: start;">- 0.5</text></g><g class="node node--leaf" transform="translate(820,236.70212765957447)"><circle r="10"/><text dy=".35em" x="13" style="text-anchor: start;">- 1.0</text></g><g class="node node--leaf" transform="translate(820,284.0425531914894)"><circle r="10"/><text dy=".35em" x="13" style="text-anchor: start;">u 0.5</text></g><g class="node node--leaf" transform="translate(820,307.71276595744683)"><circle r="10"/><text dy=".35em" x="13" style="text-anchor: start;">- 0.5</text></g><g class="node node--leaf" transform="translate(820,355.0531914893617)"><circle r="10"/><text dy=".35em" x="13" style="text-anchor: start;">u 0.33333</text></g><g class="node node--leaf" transform="translate(820,378.72340425531917)"><circle r="10"/><text dy=".35em" x="13" style="text-anchor: start;">- 0.66667</text></g><g class="node node--leaf" transform="translate(820,426.06382978723406)"><circle r="10"/><text dy=".35em" x="13" style="text-anchor: start;">u 0.33333</text></g><g class="node node--leaf" transform="translate(820,449.7340425531915)"><circle r="10"/><text dy=".35em" x="13" style="text-anchor: start;">- 0.66667</text></g><g class="node node--leaf" transform="translate(820,497.0744680851064)"><circle r="10"/><text dy=".35em" x="13" style="text-anchor: start;">u 0.33333</text></g><g class="node node--leaf" transform="translate(820,520.7446808510639)"><circle r="10"/><text dy=".35em" x="13" style="text-anchor: start;">- 0.66667</text></g><g class="node node--leaf" transform="translate(820,568.0851063829788)"><circle r="10"/><text dy=".35em" x="13" style="text-anchor: start;">u 0.4</text></g><g class="node node--leaf" transform="translate(820,591.7553191489362)"><circle r="10"/><text dy=".35em" x="13" style="text-anchor: start;">- 0.6</text></g><g class="node node--leaf" transform="translate(820,639.0957446808511)"><circle r="10"/><text dy=".35em" x="13" style="text-anchor: start;">u 0.45455</text></g><g class="node node--leaf" transform="translate(820,662.7659574468086)"><circle r="10"/><text dy=".35em" x="13" style="text-anchor: start;">- 0.54545</text></g><g class="node node--leaf" transform="translate(820,710.1063829787234)"><circle r="10"/><text dy=".35em" x="13" style="text-anchor: start;">u 0.33333</text></g><g class="node node--leaf" transform="translate(820,733.7765957446809)"><circle r="10"/><text dy=".35em" x="13" style="text-anchor: start;">- 0.66667</text></g><g class="node node--leaf" transform="translate(820,781.1170212765958)"><circle r="10"/><text dy=".35em" x="13" style="text-anchor: start;">u 0.6</text></g><g class="node node--leaf" transform="translate(820,804.7872340425532)"><circle r="10"/><text dy=".35em" x="13" style="text-anchor: start;">- 0.4</text></g><g class="node node--leaf" transform="translate(820,852.1276595744681)"><circle r="10"/><text dy=".35em" x="13" style="text-anchor: start;">u 0.30769</text></g><g class="node node--leaf" transform="translate(820,875.7978723404256)"><circle r="10"/><text dy=".35em" x="13" style="text-anchor: start;">- 0.69231</text></g><g class="node node--leaf" transform="translate(820,923.1382978723404)"><circle r="10"/><text dy=".35em" x="13" style="text-anchor: start;">u 0.26667</text></g><g class="node node--leaf" transform="translate(820,946.8085106382979)"><circle r="10"/><text dy=".35em" x="13" style="text-anchor: start;">- 0.73333</text></g><g class="node node--leaf" transform="translate(820,994.1489361702128)"><circle r="10"/><text dy=".35em" x="13" style="text-anchor: start;">u 0.57143</text></g><g class="node node--leaf" transform="translate(820,1017.8191489361702)"><circle r="10"/><text dy=".35em" x="13" style="text-anchor: start;">- 0.42857</text></g><g class="node node--leaf" transform="translate(820,1065.159574468085)"><circle r="10"/><text dy=".35em" x="13" style="text-anchor: start;">u 0.8</text></g><g class="node node--leaf" transform="translate(820,1088.8297872340427)"><circle r="10"/><text dy=".35em" x="13" style="text-anchor: start;">- 0.2</text></g><g class="node node--leaf" transform="translate(820,1136.1702127659576)"><circle r="10"/><text dy=".35em" x="13" style="text-anchor: start;">u 0.5</text></g><g class="node node--leaf" transform="translate(820,1159.840425531915)"><circle r="10"/><text dy=".35em" x="13" style="text-anchor: start;">- 0.5</text></g><g class="node node--leaf" transform="translate(820,1207.1808510638298)"><circle r="10"/><text dy=".35em" x="13" style="text-anchor: start;">u 0.44444</text></g><g class="node node--leaf" transform="translate(820,1230.8510638297873)"><circle r="10"/><text dy=".35em" x="13" style="text-anchor: start;">- 0.55556</text></g><g class="node node--leaf" transform="translate(820,1278.1914893617022)"><circle r="10"/><text dy=".35em" x="13" style="text-anchor: start;">u 0.5</text></g><g class="node node--leaf" transform="translate(820,1301.8617021276596)"><circle r="10"/><text dy=".35em" x="13" style="text-anchor: start;">- 0.5</text></g><g class="node node--leaf" transform="translate(820,1349.2021276595744)"><circle r="10"/><text dy=".35em" x="13" style="text-anchor: start;">u 0.36364</text></g><g class="node node--leaf" transform="translate(820,1372.872340425532)"><circle r="10"/><text dy=".35em" x="13" style="text-anchor: start;">- 0.63636</text></g><g class="node node--leaf" transform="translate(820,1420.212765957447)"><circle r="10"/><text dy=".35em" x="13" style="text-anchor: start;">u 0.46154</text></g><g class="node node--leaf" transform="translate(820,1443.8829787234042)"><circle r="10"/><text dy=".35em" x="13" style="text-anchor: start;">- 0.53846</text></g><g class="node node--leaf" transform="translate(820,1491.223404255319)"><circle r="10"/><text dy=".35em" x="13" style="text-anchor: start;">u 0.47059</text></g><g class="node node--leaf" transform="translate(820,1514.8936170212767)"><circle r="10"/><text dy=".35em" x="13" style="text-anchor: start;">- 0.52941</text></g><g class="node node--leaf" transform="translate(820,1562.2340425531916)"><circle r="10"/><text dy=".35em" x="13" style="text-anchor: start;">u 0.47619</text></g><g class="node node--leaf" transform="translate(820,1585.9042553191491)"><circle r="10"/><text dy=".35em" x="13" style="text-anchor: start;">- 0.52381</text></g><g class="node node--leaf" transform="translate(820,1633.244680851064)"><circle r="10"/><text dy=".35em" x="13" style="text-anchor: start;">u 0.31579</text></g><g class="node node--leaf" transform="translate(820,1656.9148936170213)"><circle r="10"/><text dy=".35em" x="13" style="text-anchor: start;">- 0.68421</text></g><g class="node node--leaf" transform="translate(820,1704.2553191489362)"><circle r="10"/><text dy=".35em" x="13" style="text-anchor: start;">u 0.18182</text></g><g class="node node--leaf" transform="translate(820,1727.9255319148938)"><circle r="10"/><text dy=".35em" x="13" style="text-anchor: start;">- 0.81818</text></g><g class="node node--leaf" transform="translate(820,1775.2659574468087)"><circle r="10"/><text dy=".35em" x="13" style="text-anchor: start;">u 0.35484</text></g><g class="node node--leaf" transform="translate(820,1798.936170212766)"><circle r="10"/><text dy=".35em" x="13" style="text-anchor: start;">- 0.64516</text></g><g class="node node--leaf" transform="translate(820,1846.276595744681)"><circle r="10"/><text dy=".35em" x="13" style="text-anchor: start;">u 0.48387</text></g><g class="node node--leaf" transform="translate(820,1869.9468085106384)"><circle r="10"/><text dy=".35em" x="13" style="text-anchor: start;">- 0.51613</text></g><g class="node node--leaf" transform="translate(820,1917.2872340425533)"><circle r="10"/><text dy=".35em" x="13" style="text-anchor: start;">u 0.3125</text></g><g class="node node--leaf" transform="translate(820,1940.9574468085107)"><circle r="10"/><text dy=".35em" x="13" style="text-anchor: start;">- 0.625</text></g><g class="node node--leaf" transform="translate(820,1988.2978723404256)"><circle r="10"/><text dy=".35em" x="13" style="text-anchor: start;">u 0.5</text></g><g class="node node--leaf" transform="translate(820,2011.9680851063831)"><circle r="10"/><text dy=".35em" x="13" style="text-anchor: start;">- 0.5</text></g><g class="node node--leaf" transform="translate(820,2059.308510638298)"><circle r="10"/><text dy=".35em" x="13" style="text-anchor: start;">u 0.3</text></g><g class="node node--leaf" transform="translate(820,2082.9787234042556)"><circle r="10"/><text dy=".35em" x="13" style="text-anchor: start;">- 0.7</text></g><g class="node node--leaf" transform="translate(820,2130.31914893617)"><circle r="10"/><text dy=".35em" x="13" style="text-anchor: start;">u 0.42105</text></g><g class="node node--leaf" transform="translate(820,2153.9893617021276)"><circle r="10"/><text dy=".35em" x="13" style="text-anchor: start;">- 0.57895</text></g><g class="node node--leaf" transform="translate(820,2201.3297872340427)"><circle r="10"/><text dy=".35em" x="13" style="text-anchor: start;">u 0.28571</text></g><g class="node node--leaf" transform="translate(820,2225)"><circle r="10"/><text dy=".35em" x="13" style="text-anchor: start;">- 0.71429</text></g><g class="node node--leaf" transform="translate(820,2272.340425531915)"><circle r="10"/><text dy=".35em" x="13" style="text-anchor: start;">u 0.375</text></g><g class="node node--leaf" transform="translate(820,2296.0106382978724)"><circle r="10"/><text dy=".35em" x="13" style="text-anchor: start;">- 0.625</text></g><g class="node node--leaf" transform="translate(820,2343.3510638297876)"><circle r="10"/><text dy=".35em" x="13" style="text-anchor: start;">u 0.35714</text></g><g class="node node--leaf" transform="translate(820,2367.021276595745)"><circle r="10"/><text dy=".35em" x="13" style="text-anchor: start;">- 0.64286</text></g><g class="node node--leaf" transform="translate(820,2414.3617021276596)"><circle r="10"/><text dy=".35em" x="13" style="text-anchor: start;">u 0.28571</text></g><g class="node node--leaf" transform="translate(820,2438.0319148936173)"><circle r="10"/><text dy=".35em" x="13" style="text-anchor: start;">- 0.71429</text></g><g class="node node--leaf" transform="translate(820,2485.372340425532)"><circle r="10"/><text dy=".35em" x="13" style="text-anchor: start;">u 0.35714</text></g><g class="node node--leaf" transform="translate(820,2509.0425531914893)"><circle r="10"/><text dy=".35em" x="13" style="text-anchor: start;">- 0.64286</text></g><g class="node node--leaf" transform="translate(820,2556.3829787234044)"><circle r="10"/><text dy=".35em" x="13" style="text-anchor: start;">u 0.54167</text></g><g class="node node--leaf" transform="translate(820,2580.053191489362)"><circle r="10"/><text dy=".35em" x="13" style="text-anchor: start;">- 0.45833</text></g><g class="node node--leaf" transform="translate(820,2627.393617021277)"><circle r="10"/><text dy=".35em" x="13" style="text-anchor: start;">u 0.30769</text></g><g class="node node--leaf" transform="translate(820,2651.063829787234)"><circle r="10"/><text dy=".35em" x="13" style="text-anchor: start;">- 0.69231</text></g><g class="node node--leaf" transform="translate(820,2698.404255319149)"><circle r="10"/><text dy=".35em" x="13" style="text-anchor: start;">u 0.56667</text></g><g class="node node--leaf" transform="translate(820,2722.0744680851067)"><circle r="10"/><text dy=".35em" x="13" style="text-anchor: start;">- 0.43333</text></g><g class="node node--leaf" transform="translate(820,2769.4148936170213)"><circle r="10"/><text dy=".35em" x="13" style="text-anchor: start;">u 0.125</text></g><g class="node node--leaf" transform="translate(820,2793.0851063829787)"><circle r="10"/><text dy=".35em" x="13" style="text-anchor: start;">- 0.875</text></g><g class="node node--leaf" transform="translate(820,2840.425531914894)"><circle r="10"/><text dy=".35em" x="13" style="text-anchor: start;">u 0.53571</text></g><g class="node node--leaf" transform="translate(820,2864.095744680851)"><circle r="10"/><text dy=".35em" x="13" style="text-anchor: start;">- 0.46429</text></g><g class="node node--leaf" transform="translate(820,2911.4361702127662)"><circle r="10"/><text dy=".35em" x="13" style="text-anchor: start;">u 0.30769</text></g><g class="node node--leaf" transform="translate(820,2935.1063829787236)"><circle r="10"/><text dy=".35em" x="13" style="text-anchor: start;">- 0.69231</text></g><g class="node node--leaf" transform="translate(820,2982.446808510638)"><circle r="10"/><text dy=".35em" x="13" style="text-anchor: start;">u 0.42105</text></g><g class="node node--leaf" transform="translate(820,3006.117021276596)"><circle r="10"/><text dy=".35em" x="13" style="text-anchor: start;">- 0.57895</text></g><g class="node node--leaf" transform="translate(820,3053.4574468085107)"><circle r="10"/><text dy=".35em" x="13" style="text-anchor: start;">u 0.51613</text></g><g class="node node--leaf" transform="translate(820,3077.1276595744685)"><circle r="10"/><text dy=".35em" x="13" style="text-anchor: start;">- 0.48387</text></g><g class="node node--leaf" transform="translate(820,3124.468085106383)"><circle r="10"/><text dy=".35em" x="13" style="text-anchor: start;">u 0.44231</text></g><g class="node node--leaf" transform="translate(820,3148.1382978723404)"><circle r="10"/><text dy=".35em" x="13" style="text-anchor: start;">- 0.55769</text></g><g class="node node--leaf" transform="translate(820,3195.4787234042556)"><circle r="10"/><text dy=".35em" x="13" style="text-anchor: start;">u 0.34286</text></g><g class="node node--leaf" transform="translate(820,3219.148936170213)"><circle r="10"/><text dy=".35em" x="13" style="text-anchor: start;">- 0.65714</text></g><g class="node node--leaf" transform="translate(820,3266.489361702128)"><circle r="10"/><text dy=".35em" x="13" style="text-anchor: start;">u 0.34694</text></g><g class="node node--leaf" transform="translate(820,3290.1595744680853)"><circle r="10"/><text dy=".35em" x="13" style="text-anchor: start;">- 0.65306</text></g><g class="node node--leaf" transform="translate(820,3337.5)"><circle r="10"/><text dy=".35em" x="13" style="text-anchor: start;">u 0.45455</text></g><g class="node node--leaf" transform="translate(820,3361.170212765958)"><circle r="10"/><text dy=".35em" x="13" style="text-anchor: start;">- 0.45455</text></g><g class="node node--leaf" transform="translate(820,3408.5106382978724)"><circle r="10"/><text dy=".35em" x="13" style="text-anchor: start;">u 0.55556</text></g><g class="node node--leaf" transform="translate(820,3432.18085106383)"><circle r="10"/><text dy=".35em" x="13" style="text-anchor: start;">- 0.44444</text></g><g class="node node--leaf" transform="translate(820,3479.521276595745)"><circle r="10"/><text dy=".35em" x="13" style="text-anchor: start;">u 0.3</text></g><g class="node node--leaf" transform="translate(820,3503.191489361702)"><circle r="10"/><text dy=".35em" x="13" style="text-anchor: start;">- 0.7</text></g><g class="node node--leaf" transform="translate(820,3550.5319148936173)"><circle r="10"/><text dy=".35em" x="13" style="text-anchor: start;">u 0.55556</text></g><g class="node node--leaf" transform="translate(820,3574.2021276595747)"><circle r="10"/><text dy=".35em" x="13" style="text-anchor: start;">- 0.44444</text></g><g class="node node--leaf" transform="translate(820,3621.5425531914893)"><circle r="10"/><text dy=".35em" x="13" style="text-anchor: start;">u 0.33333</text></g><g class="node node--leaf" transform="translate(820,3645.212765957447)"><circle r="10"/><text dy=".35em" x="13" style="text-anchor: start;">- 0.66667</text></g><g class="node node--leaf" transform="translate(820,3692.553191489362)"><circle r="10"/><text dy=".35em" x="13" style="text-anchor: start;">u 0.39623</text></g><g class="node node--leaf" transform="translate(820,3716.223404255319)"><circle r="10"/><text dy=".35em" x="13" style="text-anchor: start;">- 0.60377</text></g><g class="node node--leaf" transform="translate(820,3763.563829787234)"><circle r="10"/><text dy=".35em" x="13" style="text-anchor: start;">u 0.37037</text></g><g class="node node--leaf" transform="translate(820,3787.2340425531916)"><circle r="10"/><text dy=".35em" x="13" style="text-anchor: start;">- 0.62963</text></g><g class="node node--leaf" transform="translate(820,3834.5744680851067)"><circle r="10"/><text dy=".35em" x="13" style="text-anchor: start;">u 0.33333</text></g><g class="node node--leaf" transform="translate(820,3858.244680851064)"><circle r="10"/><text dy=".35em" x="13" style="text-anchor: start;">- 0.66667</text></g><g class="node node--leaf" transform="translate(820,3905.585106382979)"><circle r="10"/><text dy=".35em" x="13" style="text-anchor: start;">u 0.28571</text></g><g class="node node--leaf" transform="translate(820,3929.2553191489365)"><circle r="10"/><text dy=".35em" x="13" style="text-anchor: start;">- 0.71429</text></g><g class="node node--leaf" transform="translate(820,3976.595744680851)"><circle r="10"/><text dy=".35em" x="13" style="text-anchor: start;">u 0.36364</text></g><g class="node node--leaf" transform="translate(820,4000.265957446809)"><circle r="10"/><text dy=".35em" x="13" style="text-anchor: start;">- 0.63636</text></g><g class="node node--leaf" transform="translate(820,4047.6063829787236)"><circle r="10"/><text dy=".35em" x="13" style="text-anchor: start;">u 0.40625</text></g><g class="node node--leaf" transform="translate(820,4071.276595744681)"><circle r="10"/><text dy=".35em" x="13" style="text-anchor: start;">- 0.59375</text></g><g class="node node--leaf" transform="translate(820,4118.617021276596)"><circle r="10"/><text dy=".35em" x="13" style="text-anchor: start;">u 0.32609</text></g><g class="node node--leaf" transform="translate(820,4142.287234042554)"><circle r="10"/><text dy=".35em" x="13" style="text-anchor: start;">- 0.67391</text></g><g class="node node--leaf" transform="translate(820,4189.627659574468)"><circle r="10"/><text dy=".35em" x="13" style="text-anchor: start;">u 0.39286</text></g><g class="node node--leaf" transform="translate(820,4213.297872340426)"><circle r="10"/><text dy=".35em" x="13" style="text-anchor: start;">- 0.60714</text></g><g class="node node--leaf" transform="translate(820,4260.63829787234)"><circle r="10"/><text dy=".35em" x="13" style="text-anchor: start;">u 0.36364</text></g><g class="node node--leaf" transform="translate(820,4284.308510638298)"><circle r="10"/><text dy=".35em" x="13" style="text-anchor: start;">- 0.63636</text></g><g class="node node--leaf" transform="translate(820,4331.648936170213)"><circle r="10"/><text dy=".35em" x="13" style="text-anchor: start;">u 0.4</text></g><g class="node node--leaf" transform="translate(820,4355.319148936171)"><circle r="10"/><text dy=".35em" x="13" style="text-anchor: start;">- 0.58</text></g><g class="node node--leaf" transform="translate(820,4402.659574468085)"><circle r="10"/><text dy=".35em" x="13" style="text-anchor: start;">u 0.40741</text></g><g class="node node--leaf" transform="translate(820,4426.329787234043)"><circle r="10"/><text dy=".35em" x="13" style="text-anchor: start;">- 0.59259</text></g></g></svg>